<?xml version="1.0" encoding="utf-8"?>
<!-- Generator: Adobe Illustrator 24.1.1, SVG Export Plug-In . SVG Version: 6.00 Build 0)  -->
<svg version="1.1" id="Logo" xmlns="http://www.w3.org/2000/svg" xmlns:xlink="http://www.w3.org/1999/xlink" x="0px" y="0px"
	 viewBox="0 0 1080 1080" style="enable-background:new 0 0 1080 1080;" xml:space="preserve">
<style type="text/css">
	.st0{fill:none;}
	.st1{fill:#494949;}
	.st2{fill:#E0C2A0;}
	.st3{fill:url(#SVGID_1_);}
	.st4{fill:#C4A37F;}
	.st5{fill:#C9AC93;}
	.st6{fill:#B79879;}
	.st7{fill:#BE9975;}
	.st8{fill:#998373;}
	.st9{fill:url(#SVGID_2_);}
	.st10{fill:#D6B89A;}
</style>
<g id="Text">
	<g>
		<g>
			<path class="st0" d="M681.5,504.9c-1,19.9-20.5,22.4-21.2,22.5h-43c-0.2,0-0.4,0-0.6,0l-1.3-0.2v0.2h-16.8
				c-2.3,0-4.2-1.9-4.2-4.2v-85.9l63.5-0.1c11.6,0,20.1,17,23.3,24.5c-12.9-9.2-22.8-10-23.3-10h-39.3c-0.7,0-1.4,0-1.9-0.2
				l-1.3-0.2v59.5l1.1,0c12,0.2,28,0.5,34.7,0.5c3.1,0,5.6-1,7.3-3.1c4-4.7,2.9-13,2.8-13.2v-29.9c10.7,0.7,19.2,11.3,20.5,13
				C682,479.7,682.4,486.8,681.5,504.9z"/>
		</g>
		<g>
			<path class="st1" d="M684,477.4l-0.2-0.2c-0.4-0.6-10.3-14.1-23.6-14.1h-1.1l0,32.3c0,0.1,1.1,7.7-2.3,11.6
				c-1.4,1.6-3.2,2.4-5.7,2.4c-6.5,0-21.7-0.2-33.6-0.5v-54.9c0.3,0,0.7,0,1,0H658c0.1,0,11.2,0.9,25.1,11.9l2.9,2.3l-1.2-3.5
				c-0.4-1.2-10.3-29.5-26.7-29.5l-65.7,0.1v88.1c0,3.5,2.9,6.4,6.4,6.4h17.8l0.4,0h43.5c0.2,0,22.2-2.7,23.2-24.5
				c1-20.8,0.4-27.1,0.3-27.3L684,477.4z M681.5,504.9c-1,19.9-20.5,22.4-21.2,22.5h-43c-0.2,0-0.4,0-0.6,0l-1.3-0.2v0.2h-16.8
				c-2.3,0-4.2-1.9-4.2-4.2v-85.9l63.5-0.1c11.6,0,20.1,17,23.3,24.5c-12.9-9.2-22.8-10-23.3-10h-39.3c-0.7,0-1,0-1.8,0l-1.3,0.1
				l-0.1,59.1l1.1,0c12,0.2,28,0.5,34.7,0.5c3.1,0,5.6-1,7.3-3.1c4-4.7,2.9-13,2.8-13.2v-29.9c10.7,0.7,19.2,11.3,20.5,13
				C682,479.7,682.4,486.8,681.5,504.9z"/>
		</g>
	</g>
	<polygon class="st0" points="478.3,437.2 513.6,487.6 514,527.8 523.7,528 531,524.3 534.1,519.4 535.5,514.5 535.3,486.6 
		501.7,436.3 477.9,435.6 477.4,436.6 	"/>
	<g>
		<g>
			<path class="st0" d="M679.7,552.8v0.6c0,5.4-4.4,9.7-9.8,9.7h-29.7c-0.3,0-7.4,0.6-16.9,7.1c2.6-5.9,8.7-17.4,16.9-17.4H679.7z"
				/>
		</g>
		<g>
			<path class="st1" d="M640.3,550.6c-12.6,0-20.1,21.5-20.4,22.4l-1.2,3.5l2.9-2.3c10.4-8.2,18.7-8.9,18.7-8.9h29.6
				c6.6,0,11.9-5.4,11.9-11.9v-2.8H640.3z M679.7,553.4c0,5.4-4.4,9.7-9.8,9.7h-29.7c-0.3,0-7.4,0.6-16.9,7.1
				c2.6-5.9,8.7-17.4,16.9-17.4h39.4V553.4z"/>
		</g>
	</g>
	<g>
		<g>
			<path class="st0" d="M681.4,608.1v1.6c0,5.7-4.7,10.4-10.4,10.4h-32.3c-0.6-0.1-15.1-1.9-15.8-16.7c-0.7-13.4-0.4-18.8-0.3-20
				c1.1-1.4,7.2-8.9,14.9-9.6l0,22c0,0.3-1,6.6,2.2,10.3c1.4,1.6,3.3,2.4,5.7,2.4C653,608.6,676.1,608.2,681.4,608.1z"/>
		</g>
		<g>
			<path class="st1" d="M682.5,605.9c-0.3,0-28.6,0.6-37,0.6c-1.8,0-3.1-0.5-4.1-1.7c-2.5-2.9-1.7-8.5-1.7-8.7v-24.4h-1.1
				c-10.1,0.1-17.7,10.3-18,10.8l-0.2,0.2l0,0.3c0,0.2-0.5,5,0.3,20.7c0.8,16.6,17.6,18.7,17.9,18.7H671c6.9,0,12.6-5.7,12.6-12.6
				v-3.9L682.5,605.9z M681.4,609.7c0,5.7-4.7,10.4-10.4,10.4h-32.3c-0.6-0.1-15.1-1.9-15.8-16.7c-0.7-13.4-0.4-18.8-0.3-20
				c1.1-1.4,7.2-8.9,14.9-9.6l0,22c0,0.3-1,6.6,2.2,10.3c1.4,1.6,3.3,2.4,5.7,2.4c7.5,0,30.6-0.4,35.9-0.5V609.7z"/>
		</g>
	</g>
	<g>
		<g>
			<path class="st0" d="M437,552.8v0.6c0,5.4-4.4,9.7-9.8,9.7h-29.7c-0.3,0-7.4,0.6-16.9,7.1c2.6-5.9,8.7-17.4,16.9-17.4H437z"/>
		</g>
		<g>
			<path class="st1" d="M397.6,550.6c-12.6,0-20.1,21.5-20.4,22.4l-1.2,3.5l2.9-2.3c10.4-8.2,18.7-8.9,18.7-8.9h29.6
				c6.6,0,11.9-5.4,11.9-11.9v-2.8H397.6z M437,553.4c0,5.4-4.4,9.7-9.8,9.7h-29.7c-0.3,0-7.4,0.6-16.9,7.1
				c2.6-5.9,8.7-17.4,16.9-17.4H437V553.4z"/>
		</g>
	</g>
	<g>
		<g>
			<path class="st0" d="M438.7,608.1v1.6c0,5.7-4.7,10.4-10.4,10.4H396c-0.6-0.1-15.1-1.9-15.8-16.7c-0.7-13.4-0.4-18.8-0.3-20
				c1.1-1.4,7.2-8.9,14.9-9.6l0,22c0,0.3-1,6.6,2.2,10.3c1.4,1.6,3.3,2.4,5.7,2.4C410.2,608.6,433.4,608.2,438.7,608.1z"/>
		</g>
		<g>
			<path class="st1" d="M439.8,605.9c-0.3,0-28.6,0.6-37,0.6c-1.8,0-3.1-0.5-4.1-1.7c-2.5-2.9-1.7-8.5-1.7-8.7v-24.4h-1.1
				c-10.1,0.1-17.7,10.3-18,10.8l-0.2,0.2l0,0.3c0,0.2-0.5,5,0.3,20.7c0.8,16.6,17.6,18.7,17.9,18.7h32.4c6.9,0,12.6-5.7,12.6-12.6
				v-3.9L439.8,605.9z M438.7,609.7c0,5.7-4.7,10.4-10.4,10.4H396c-0.6-0.1-15.1-1.9-15.8-16.7c-0.7-13.4-0.4-18.8-0.3-20
				c1.1-1.4,7.2-8.9,14.9-9.6l0,22c0,0.3-1,6.6,2.2,10.3c1.4,1.6,3.3,2.4,5.7,2.4c7.5,0,30.6-0.4,35.9-0.5V609.7z"/>
		</g>
	</g>
	<g>
		<g>
			<path class="st0" d="M753.6,552.8v0.6c0,5.4-4.4,9.7-9.8,9.7h-29.7c-0.3,0-7.4,0.6-16.9,7.1c2.6-5.9,8.7-17.4,16.9-17.4H753.6z"
				/>
		</g>
		<g>
			<path class="st1" d="M714.2,550.6c-12.6,0-20.1,21.5-20.4,22.4l-1.2,3.5l2.9-2.3c10.4-8.2,18.7-8.9,18.7-8.9h29.6
				c6.6,0,11.9-5.4,11.9-11.9v-2.8H714.2z M753.6,553.4c0,5.4-4.4,9.7-9.8,9.7h-29.7c-0.3,0-7.4,0.6-16.9,7.1
				c2.6-5.9,8.7-17.4,16.9-17.4h39.4V553.4z"/>
		</g>
	</g>
	<g>
		<g>
			<path class="st0" d="M867.7,529.7c-21.8,2.7-39.5-6.5-48.8-25.6c-9.5-19.4-7.4-43.3,4.9-54.5c4.6-4.2,10.3-6.3,16.9-6.3
				c6.5,0,13.9,2.1,21.9,6.2c-8-0.1-15,3.3-20.2,10.1c-8.9,11.9-10.3,31.7-3.1,44.9C842.7,514.8,860.6,525.7,867.7,529.7z"/>
		</g>
		<g>
			<path class="st1" d="M871.6,529.4c-0.3-0.2-26.4-13.9-30.3-25.6c-6.9-12.7-5.6-31.5,2.9-42.7c4-5.4,11.4-11.3,23.5-8.6l6.4,1.4
				l-5.6-3.4c-25.4-15.4-39.8-8.1-46.1-2.3c-12.9,11.8-15.2,36.8-5.4,57c8.7,17.7,24.2,27.2,43.4,27.2c3.5,0,7.1-0.3,10.9-1l3.2-0.5
				L871.6,529.4z M818.9,504.2c-9.5-19.4-7.4-43.3,4.9-54.5c4.6-4.2,10.3-6.3,16.9-6.3c6.5,0,13.9,2.1,21.9,6.2
				c-8-0.1-15,3.3-20.2,10.1c-8.9,11.9-10.3,31.7-3.1,44.9c3.4,10.1,21.4,21,28.4,25.1C846,532.4,828.3,523.2,818.9,504.2z"/>
		</g>
	</g>
	<g>
		<g>
			<path class="st0" d="M901.1,517.3c-9.7,8.8-23.7,8.6-39.8-0.6c15.9-2.1,27.5-11.5,30.7-25.2c3.5-15.1-3.6-39-34.7-57.9
				c22.1-3.2,40,5.6,49.4,24.4C917,478.7,914.5,505.2,901.1,517.3z"/>
		</g>
		<g>
			<path class="st1" d="M908.7,457.2c-10.3-20.6-30.2-29.8-54.7-25.1l-2.9,0.6l2.5,1.5c32.2,18.5,39.7,42.3,36.2,57
				c-3.2,13.8-15.2,22.7-32.1,23.8l-3.4,0.2l2.9,1.8c9.7,6,18.7,9,26.7,9c7.1,0,13.3-2.4,18.5-7.1
				C916.6,506.2,919.4,478.5,908.7,457.2z M861.3,516.8c15.9-2.1,27.5-11.5,30.7-25.2c3.5-15.1-3.6-39-34.7-57.9
				c22.1-3.2,40,5.6,49.4,24.4c10.2,20.5,7.7,47-5.6,59.2C891.5,526.1,877.4,525.9,861.3,516.8z"/>
		</g>
	</g>
	<g>
		<g>
			<path class="st0" d="M490.1,621.1c-16.6,2-30.1-5-37.3-19.5c-7.2-14.8-5.6-33,3.7-41.6c3.5-3.2,7.9-4.8,12.9-4.8
				c5,0,10.6,1.6,16.7,4.7c-6.1-0.1-11.5,2.5-15.4,7.7c-6.8,9.1-7.8,24.2-2.4,34.3C471,609.7,484.7,618.1,490.1,621.1z"/>
		</g>
		<g>
			<path class="st1" d="M493.1,620.9c-0.2-0.1-20.1-10.6-23.2-19.5c-5.2-9.7-4.3-24,2.2-32.6c3.1-4.1,8.7-8.6,17.9-6.6l4.9,1
				l-4.3-2.6c-19.4-11.8-30.4-6.2-35.2-1.8c-9.8,9-11.6,28.1-4.1,43.5c6.6,13.5,18.4,20.8,33.2,20.8c2.7,0,5.4-0.2,8.3-0.7l2.4-0.4
				L493.1,620.9z M452.8,601.6c-7.2-14.8-5.6-33,3.7-41.6c3.5-3.2,7.9-4.8,12.9-4.8c5,0,10.6,1.6,16.7,4.7
				c-6.1-0.1-11.5,2.5-15.4,7.7c-6.8,9.1-7.8,24.2-2.4,34.3c2.6,7.7,16.3,16.1,21.7,19.1C473.5,623.2,460,616.1,452.8,601.6z"/>
		</g>
	</g>
	<g>
		<g>
			<path class="st0" d="M515.6,611.7c-7.4,6.7-18.1,6.5-30.4-0.4c12.1-1.6,21-8.8,23.4-19.2c2.7-11.5-2.7-29.8-26.5-44.2
				c16.8-2.5,30.5,4.3,37.7,18.7C527.7,582.1,525.8,602.4,515.6,611.7z"/>
		</g>
		<g>
			<path class="st1" d="M521.4,565.8c-7.9-15.7-23.1-22.7-41.7-19.2l-2.2,0.4l1.9,1.1c24.6,14.1,30.3,32.3,27.6,43.5
				c-2.5,10.6-11.6,17.4-24.5,18.2L480,610l2.2,1.4c7.4,4.6,14.3,6.9,20.4,6.9c5.4,0,10.2-1.8,14.1-5.4
				C527.4,603.2,529.5,582,521.4,565.8z M485.2,611.2c12.1-1.6,21-8.8,23.4-19.2c2.7-11.5-2.7-29.8-26.5-44.2
				c16.8-2.5,30.5,4.3,37.7,18.7c7.8,15.6,5.9,35.9-4.3,45.2C508.2,618.4,497.5,618.2,485.2,611.2z"/>
		</g>
	</g>
	<g>
		<g>
			<path class="st0" d="M602.2,619.2H588l-32.4-49.5v50.9h-10.5c-2.5,0-4.5-2-4.5-4.5v-63.4h15.5L602.2,619.2z"/>
		</g>
		<g>
			<path class="st1" d="M557.6,551l-0.3-0.5h-18.8v65.6c0,3.7,3,6.7,6.7,6.7h12.7V577l28.7,43.9l0.3,0.5h19.6L557.6,551z
				 M555.6,620.6h-10.5c-2.5,0-4.5-2-4.5-4.5v-63.4h15.5l46.1,66.5H588l-32.4-49.5V620.6z"/>
		</g>
	</g>
	<g>
		<g>
			<path class="st0" d="M605.2,552.9v57.3l-15-22.1l-0.5-27.4c0-2,0.7-3.9,2.2-5.4c1.5-1.5,3.5-2.4,5.8-2.4H605.2z"/>
		</g>
		<g>
			<path class="st1" d="M597.7,550.7c-2.8,0-5.4,1.1-7.3,3c-1.8,1.9-2.9,4.4-2.8,7l0.5,28l19.3,28.5v-66.6H597.7z M605.2,610.2
				l-15-22.1l-0.5-27.4c0-2,0.7-3.9,2.2-5.4c1.5-1.5,3.5-2.4,5.8-2.4h7.5V610.2z"/>
		</g>
	</g>
	<g>
		<g>
			<path class="st0" d="M755.3,608.1v1.6c0,5.7-4.7,10.4-10.4,10.4h-32.3c-0.6-0.1-15.1-1.9-15.8-16.7c-0.7-13.3-0.4-18.8-0.3-20
				c1.1-1.4,7.2-8.9,14.9-9.6v5.8h42v1.8c0,5.3-4.3,9.6-9.6,9.6h-32.4l0,4.8c0,0.3-1,6.6,2.2,10.3c1.4,1.6,3.3,2.4,5.7,2.4
				C726.9,608.6,750,608.2,755.3,608.1z"/>
		</g>
		<g>
			<path class="st1" d="M756.4,605.9c-0.3,0-28.6,0.6-37,0.6c-1.8,0-3.1-0.5-4.1-1.7c-2.5-2.9-1.7-8.5-1.7-8.7v-2.8h30.2
				c6.5,0,11.8-5.3,11.8-11.8v-4h-42v-5.9h-1.1c-10.1,0.1-17.7,10.3-18,10.8l-0.2,0.2l0,0.3c0,0.2-0.5,5,0.3,20.6
				c0.8,16.7,17.6,18.7,17.9,18.8h32.4c6.9,0,12.6-5.7,12.6-12.6v-3.9L756.4,605.9z M755.3,609.7c0,5.7-4.7,10.4-10.4,10.4h-32.3
				c-0.6-0.1-15.1-1.9-15.8-16.7c-0.7-13.3-0.4-18.8-0.3-20c1.1-1.4,7.2-8.9,14.9-9.6v5.8h42v1.8c0,5.3-4.3,9.6-9.6,9.6h-32.4l0,4.8
				c0,0.3-1,6.6,2.2,10.3c1.4,1.6,3.3,2.4,5.7,2.4c7.5,0,30.6-0.4,35.9-0.5V609.7z"/>
		</g>
	</g>
	<g>
		<g>
			<path class="st0" d="M833.7,574.1c0,7-1.9,12.3-5.6,16c-5.4,5.3-12.9,5.2-13,5.2h-31.6v24.5h-9.7c-2,0-3.7-1.6-3.7-3.7V570
				c0.8,0,2.3-0.1,5.2,0c4.2,0,7.7,3.5,7.7,7.7v6.7h27.3c1.4,0,2.9-0.5,4-1.4c2.6-2.2,4.1-5.4,4.1-8.9c0-3.4-1.6-6.6-4.2-8.8
				l-1.1-0.9c-1-0.8-2.2-1.2-3.4-1.2h-33.6c-3.5,0-6.3-2.8-6.3-6.3v-3.5h45c0.1,0,7.9-0.3,13.5,5
				C831.8,561.9,833.7,567.2,833.7,574.1z"/>
		</g>
		<g>
			<path class="st1" d="M829.6,556.8c-6.2-5.9-14.7-5.6-15-5.6h-47.1v5.7c0,4.7,3.8,8.5,8.5,8.5h33.6c0.7,0,1.5,0.2,2,0.7l1.1,0.9
				c2.2,1.7,3.4,4.3,3.4,7.1c0,2.8-1.2,5.4-3.3,7.2c-0.7,0.6-1.6,0.9-2.6,0.9h-25.1v-4.5c0-5.4-4.4-9.9-9.8-9.9
				c-6.5-0.1-6.6,0.1-7,0.5l-0.3,0.3v47.5c0,3.2,2.6,5.8,5.8,5.8h11.9v-24.5H815c0.3,0,8.5,0.2,14.6-5.8c4.2-4.1,6.3-10,6.3-17.6
				C835.9,566.6,833.8,560.8,829.6,556.8z M783.4,619.8h-9.7c-2,0-3.7-1.6-3.7-3.7V570c0.8,0,2.3-0.1,5.2,0c4.2,0,7.7,3.5,7.7,7.7
				v6.7h27.3c1.4,0,2.9-0.5,4-1.4c2.6-2.2,4.1-5.4,4.1-8.9c0-3.4-1.6-6.6-4.2-8.8l-1.1-0.9c-1-0.8-2.2-1.2-3.4-1.2h-33.6
				c-3.5,0-6.3-2.8-6.3-6.3v-3.5h45c0.1,0,7.9-0.3,13.5,5c3.7,3.6,5.6,8.9,5.6,15.7c0,7-1.9,12.3-5.6,16c-5.4,5.3-12.9,5.2-13,5.2
				h-31.6V619.8z"/>
		</g>
	</g>
	<g>
		<g>
			<path class="st0" d="M789,525.4h-19l-19.3-31.7h-29.5v32.7h-14.6c-2.2,0-3.9-1.8-3.9-3.9v-63.1c1.2-0.1,3.6-0.1,7.2-0.1
				c5.9,0.1,10.6,4.9,10.6,10.7v8.5h36c0.7,0,1.5-0.1,2.2-0.3L789,525.4z"/>
		</g>
		<g>
			<path class="st1" d="M759.6,475.6l-0.8,0.3c-0.7,0.3-1.5,0.5-2.2,0.5h-33.8V470c0-7-5.7-12.8-12.8-12.9c-8.6,0-8.7,0.1-9.1,0.5
				l-0.3,0.3v64.5c0,3.4,2.7,6.1,6.1,6.1h16.7v-32.7h26.1l19.3,31.7H793L759.6,475.6z M721.2,526.4h-14.6c-2.2,0-3.9-1.8-3.9-3.9
				v-63.1c1.2-0.1,3.6-0.1,7.2-0.1c5.9,0.1,10.6,4.9,10.6,10.7v8.5h36c0.7,0,1.5-0.1,2.2-0.3l30.3,47.2h-19l-19.3-31.7h-29.5V526.4z
				"/>
		</g>
	</g>
	<g>
		<g>
			<path class="st0" d="M788.3,465.1c0,10.8-3.4,18.8-10,23.6l-12.9-16.8c3.1-6.2,1.5-13.8-3.9-18.2l-1.5-1.2
				c-1.2-1-2.7-1.5-4.3-1.5h-44.8c-4.8,0-8.7-3.9-8.7-8.7v-5.1h60.4c0.1,0,10.8-0.4,18.3,6.7C785.7,448.7,788.3,455.9,788.3,465.1z"
				/>
		</g>
		<g>
			<path class="st1" d="M782.2,442.3c-8.2-7.8-19.4-7.4-19.8-7.3h-62.5v7.3c0,6,4.9,10.9,10.9,10.9h44.8c1.1,0,2.1,0.4,2.9,1
				l1.5,1.2c4.8,3.9,6.1,10.7,3.1,16.1l-0.3,0.6l0.4,0.6l13.9,18.2l0.6,0.8l0.8-0.5c5.4-3.6,11.8-11,11.8-26
				C790.5,455.2,787.7,447.6,782.2,442.3z M778.3,488.7l-12.9-16.8c3.1-6.2,1.5-13.8-3.9-18.2l-1.5-1.2c-1.2-1-2.7-1.5-4.3-1.5
				h-44.8c-4.8,0-8.7-3.9-8.7-8.7v-5.1h60.4c0.1,0,10.8-0.4,18.3,6.7c5,4.8,7.6,11.9,7.6,21.2C788.3,475.9,784.9,483.9,778.3,488.7z
				"/>
		</g>
	</g>
	<g>
		<g>
			<path class="st0" d="M887.4,571.6v37.9c0,6.4-5.2,11.5-11.5,11.5h-4v-49.4H887.4z"/>
		</g>
		<g>
			<path class="st1" d="M869.7,569.4v53.7h6.2c7.6,0,13.7-6.1,13.7-13.7v-40H869.7z M887.4,609.4c0,6.4-5.2,11.5-11.5,11.5h-4v-49.4
				h15.5V609.4z"/>
		</g>
	</g>
	<g>
		<g>
			<path class="st0" d="M911.3,553.1c-0.4,5.6-5,10-10.7,10h-49.9v-10H911.3z"/>
		</g>
		<g>
			<path class="st1" d="M848.5,550.9v14.3h52c7.1,0,12.9-5.8,12.9-12.9v-1.4H848.5z M900.6,563h-49.9v-10h60.6
				C910.9,558.6,906.3,563,900.6,563z"/>
		</g>
	</g>
	<g>
		<g>
			<path class="st0" d="M397.8,450v78.4h-2.4c-9.4,0-17-7.6-17-17V436h5.4C391.5,436,397.8,442.3,397.8,450z"/>
		</g>
		<g>
			<path class="st1" d="M383.8,433.9h-7.5v77.6c0,10.6,8.6,19.2,19.1,19.2h4.5V450C400,441.1,392.7,433.9,383.8,433.9z M397.8,528.4
				h-2.4c-9.4,0-17-7.6-17-17V436h5.4c7.7,0,14,6.3,14,14V528.4z"/>
		</g>
	</g>
	<g>
		<g>
			<path class="st0" d="M457.9,450v78.4h-2.4c-9.4,0-17-7.6-17-17v-22.6h-22c-3.1,0-6.1-1.2-8.3-3.4c-2.2-2.2-3.4-5.2-3.4-8.3
				c0-1.3,0-2.5,0-3.3h33.5V436h5.4C451.7,436,457.9,442.3,457.9,450z"/>
		</g>
		<g>
			<path class="st1" d="M444,433.9h-7.5v37.8H404c-1.1,0-1.1,0-1.2,5.5c0,3.7,1.4,7.2,4,9.8c2.6,2.6,6.1,4.1,9.8,4.1h19.8v20.4
				c0,10.6,8.6,19.1,19.1,19.1h4.5V450C460.1,441.1,452.9,433.9,444,433.9z M457.9,528.4h-2.4c-9.4,0-17-7.6-17-17v-22.6h-22
				c-3.1,0-6.1-1.2-8.3-3.4c-2.2-2.2-3.4-5.2-3.4-8.3c0-1.3,0-2.5,0-3.3h33.5V436h5.4c7.7,0,14,6.3,14,14V528.4z"/>
		</g>
	</g>
	<g>
		<g>
			<path class="st1" d="M521.3,528.9h-8.4v-40.7L475,434.6h26.9l34.7,51.4v27.5C536.7,521.9,529.8,528.9,521.3,528.9z M515,526.7
				h6.2c7.3,0,13.2-5.9,13.2-13.2v-26.8l-33.7-49.9h-21.6l35.8,51l0,0.6V526.7z"/>
		</g>
	</g>
	<g>
		<g>
			<path class="st0" d="M571.5,436.7l-29.8,42.2l-10.6-14.3l13.8-20.4c3.2-4.7,8.4-7.5,14.1-7.5H571.5z"/>
		</g>
		<g>
			<path class="st1" d="M559,434.6c-6.4,0-12.3,3.2-15.9,8.4l-14.6,21.6l0.5,0.6l11.9,16.2l0.9,1.2l34-48.1H559z M531.1,464.6
				l13.8-20.4c3.2-4.7,8.4-7.5,14.1-7.5h12.5l-29.8,42.2L531.1,464.6z"/>
		</g>
	</g>
</g>
<g id="Symbol">
	<path class="st2" d="M270.3,601.5c-0.1-0.3-0.3-1-0.4-1.3c-13.4-49.6,35.6-93.6,27.4-135.4c2.4,2.5,4.8,5.5,6.5,7.8
		C307.3,513.7,262,565.8,270.3,601.5z"/>
	<path class="st2" d="M337.8,543L337.8,543z"/>
	<g>
		<radialGradient id="SVGID_1_" cx="311.7935" cy="511.0185" r="41.1786" gradientUnits="userSpaceOnUse">
			<stop  offset="0" style="stop-color:#E0C2A0"/>
			<stop  offset="0.4082" style="stop-color:#D7B896"/>
			<stop  offset="1" style="stop-color:#C4A37F"/>
		</radialGradient>
		<path class="st3" d="M327.8,548.5c-12.6,26.1-40.1,11.7-35.7-13c0.3-1.5,0.7-3.1,1.2-4.7c0.2-0.5,0.4-1,0.6-1.6
			c0.6-1.7,1.4-3.4,2.4-5.2c5.5-10.6,8.6-22.8,9.9-32.7c0.4-3,0.7-5.9,0.8-8.4c1.4,2.1,2.8,4.1,4,6.1c7.6,11.9,12.6,22.5,15.4,31.7
			c0.2,0.6,0.4,1.2,0.5,1.7C329.9,533.4,329.9,542.1,327.8,548.5z"/>
		<path class="st4" d="M242.2,602.9C242.2,602.9,242.2,602.9,242.2,602.9c-17.8,6.6-45.5,4.4-51.8-13c-4-11.2,0.1-22.5,5.3-32.3
			c21.9-40.6,80.6-60.6,90.4-107.5c0-0.2,0.1-0.4,0.1-0.6C298.2,501.5,224.4,548.1,242.2,602.9z"/>
		<path class="st2" d="M257.3,593.3c-0.3,0.3-0.6,0.6-0.9,0.9c-0.3,0.3-0.6,0.6-0.9,0.9l0,0c-0.5,0.5-1,0.9-1.6,1.3
			c-0.3,0.2-0.5,0.4-0.8,0.6c-0.4,0.3-0.7,0.6-1.1,0.8c-0.3,0.2-0.7,0.5-1,0.7c-0.7,0.5-1.3,0.9-2,1.3c-0.3,0.2-0.7,0.4-1,0.6
			c0,0-0.1,0-0.1,0.1c-0.3,0.2-0.7,0.4-1,0.5c-0.3,0.2-0.7,0.4-1,0.5c-0.5,0.2-1,0.5-1.5,0.7c-0.5,0.2-1,0.4-1.5,0.6
			c-0.4,0.2-0.7,0.3-1.1,0.4c-0.3,0.1-0.7,0.3-1,0.4c0,0,0,0,0,0c0,0-0.1,0-0.1,0c-0.2-0.5-0.3-1-0.5-1.5c-0.1-0.4-0.3-0.9-0.4-1.3
			c-0.4-1.3-0.7-2.6-1-4c-1.2-5.7-1.3-11.3-0.8-16.8c0.1-0.7,0.1-1.3,0.2-2c5.9-44.1,57.9-84.6,47.8-128.5c0,0,0-0.1,0-0.1
			c3.7,6.1,5.2,14.6,5.6,21.6c0,0.1,0,0.1,0,0.2c-0.4,47.2-32.2,62.5-34.5,116C257.1,589.2,257.4,593.4,257.3,593.3z"/>
		<path class="st2" d="M241.5,602.8C241.5,602.8,241.6,602.9,241.5,602.8C241.5,602.9,241.5,602.9,241.5,602.8L241.5,602.8
			C241.5,602.9,241.5,602.9,241.5,602.8c-0.3-0.5-0.4-1-0.5-1.5C241.2,601.9,241.3,602.4,241.5,602.8
			C241.5,602.9,241.5,602.8,241.5,602.8z"/>
		<path class="st0" d="M241.8,603.8c0-0.1-0.1-0.1-0.1-0.2c0-0.1-0.1-0.2-0.1-0.2c-0.1-0.2-0.2-0.3-0.2-0.5c0,0,0,0,0,0
			c0,0,0.1,0,0.1,0c0,0,0,0,0,0c0,0,0.1,0,0.1,0c0,0,0,0,0,0C241.6,603.2,241.7,603.5,241.8,603.8z"/>
		<path class="st0" d="M290.3,471v0.2C290.2,471,290.2,471,290.3,471C290.2,470.9,290.2,470.9,290.3,471z"/>
		<path class="st0" d="M272.9,608.7c-0.3-0.5-0.5-1-0.8-1.5c0,0,0,0,0,0c0.1,0.2,0.2,0.5,0.3,0.7
			C272.7,608.1,272.8,608.4,272.9,608.7z"/>
		<path class="st4" d="M337.8,543.3c-3.6-26.4-18.5-46.3-33.4-69.8c-0.1-0.1-0.8-1.1-1-1.3c0,0,0,0,0,0
			c3.5,41.1-41.5,93.3-33.2,128.9c0,0,0,0,0,0.1c0.5,2.1,1.1,4.1,2,6.1c0.1,0.2,0.2,0.5,0.3,0.7c23.4,4.9,45.5-17.1,62.4-31.1
			c0-0.2,0.1-0.3,0.2-0.5C338.3,565.9,339.1,553.4,337.8,543.3z M292.3,535.4c0.3-1.5,0.7-3.1,1.2-4.7c0.2-0.5,0.3-1,0.5-1.6
			c0.6-1.7,1.4-3.4,2.4-5.1c5.5-10.5,8.5-22.5,9.8-32.3c0.4-3,0.7-5.8,0.8-8.3c1.4,2,2.7,4,4,6c7.5,11.8,12.4,22.3,15.2,31.3
			c0.2,0.6,0.4,1.2,0.5,1.7c3,10.6,3.1,19.3,1,25.6C315.1,574.1,287.9,559.8,292.3,535.4z"/>
		<path class="st5" d="M254.5,633.7c2.3,0.1,4.6,0.2,6.9,0.2C259.1,634,256.9,634,254.5,633.7C254.5,633.8,254.5,633.8,254.5,633.7z
			"/>
		<path class="st6" d="M261.4,633.9c-2.2,0-4.5,0-6.9-0.2c-23.7-1.5-50.9-11.7-64.1-44.1c12.1,13.7,32.7,19.3,50.1,13.1
			c0.3-0.1,0.5-0.2,0.8-0.3c0.1,0.2,0.2,0.3,0.2,0.5c0,0.1,0.1,0.2,0.1,0.2C245,614.6,253.5,625.9,261.4,633.9z"/>
		<path class="st7" d="M241.7,603.7c0-0.1-0.1-0.2-0.1-0.2c-0.1-0.2-0.2-0.3-0.2-0.5c0,0,0.1,0,0.1,0
			C241.5,603.2,241.6,603.4,241.7,603.7z"/>
		<path class="st7" d="M335.5,574.6c-7.1,27.1-43,74.2-62.6,34.1c0-0.1-0.3-0.6-0.3-0.6c-0.1-0.3-0.3-0.6-0.4-0.8
			c23.7,5.1,46-17.7,63.1-32.2C335.4,574.9,335.5,574.8,335.5,574.6z"/>
		<path class="st2" d="M237.9,468.5c-7,6.3-14.5,12.3-21.3,18.4C223.7,480.4,231.1,474.4,237.9,468.5z"/>
		<path class="st2" d="M232.2,505.6c-21.5,19.4-43.9,40.8-48.7,67.8c-6.8-33.7,4.3-56,20.3-73.9c-0.2,0.2-0.3,0.4-0.5,0.6
			c1.6-1.6,3.3-3.2,5.3-4.9c0.5-0.5,1.1-0.9,1.7-1.4c0.5-0.5,1.1-0.9,1.7-1.3c0.4-0.3,0.9-0.7,1.3-1c0.6-0.4,1.2-0.9,1.8-1.4
			c0.8-0.6,1.7-1.3,2.5-1.9c1.5-1.1,3-2.2,4.5-3.3c1-0.7,1.9-1.4,2.9-2.1c1.5-1.2,3.1-2.3,4.7-3.5c0.7-0.5,1.5-1.1,2.2-1.6
			c1.6-1.2,3.2-2.4,4.8-3.6c2.8-2.1,5.5-4.3,8.2-6.6c1.3-1.1,2.6-2.3,3.9-3.4c0.8-0.8,1.7-1.5,2.5-2.3c0.8-0.8,1.6-1.6,2.4-2.4
			c2-2,3.8-4,5.5-6.1c1.6-2,3.1-4,4.4-6.1c2.1-3.3,3.7-6.6,4.8-10.1c1.3-4.2,1.8-8.6,1.3-13.2c0,0,0,0,0,0c-0.1-0.5-0.1-1-0.2-1.5
			c0,0,0,0,0,0c-0.3-1.7-0.7-3.5-1.3-5.3c-0.3-1-0.7-2.1-1.2-3.1c-0.1-0.2-0.2-0.4-0.3-0.6c-0.1-0.3-0.3-0.7-0.5-1
			c-0.4-0.8-0.8-1.6-1.2-2.4c-1.3-2.4-2.9-4.8-4.9-7.3c3.7,3.8,6.8,7.6,9.4,11.2c0,0,0,0,0,0l0,0c0,0,0,0,0,0
			C289.5,455.7,254,471.2,232.2,505.6z"/>
		<path class="st8" d="M203.3,500.1c24.5-29,77.9-50.8,56.7-97.4C295.2,447.6,226.2,476.6,203.3,500.1z"/>
		<path class="st8" d="M215.2,488.1c-3.9,3.6-7.7,7.3-11.2,11.2C207.3,495.5,211.1,491.8,215.2,488.1z"/>
		
			<radialGradient id="SVGID_2_" cx="221.8758" cy="434.142" r="66.3547" gradientTransform="matrix(1.0068 0 0 0.9998 -1.5518 8.992973e-02)" gradientUnits="userSpaceOnUse">
			<stop  offset="0" style="stop-color:#E0C2A0"/>
			<stop  offset="0.5083" style="stop-color:#DEC09E"/>
			<stop  offset="0.6913" style="stop-color:#D9BA97"/>
			<stop  offset="0.8214" style="stop-color:#CFAF8C"/>
			<stop  offset="0.9045" style="stop-color:#C4A37F"/>
		</radialGradient>
		<path class="st9" d="M236.8,501.3c-0.1,0.1-0.1,0.1-0.2,0.2c-2.8,2.4-3,2.8-5,4.6c-0.2,0.2-2.6,2.4-2.8,2.5
			c24-37.1,60-51.4,40.5-94.5c0,0-0.6-1.1-0.6-1.1C302.9,450.4,259,483.5,236.8,501.3z"/>
		<path class="st10" d="M278.5,630.8c-5.8,1.8-11.5,2.9-17.2,3.1c-8.6-8.1-17.4-19.6-20.9-31.2c6.3-2.3,12.2-5.8,16.9-10.4
			C257.9,607.4,266.1,621.3,278.5,630.8z"/>
	</g>
</g>
</svg>
